# xmcd CD database file
#
# Track frame offsets:
#	150
#	29364
#	31810
#	58021
#	86623
#	121848
#	150890
#	181265
#	204476
#	230019
#	262563
#
# Disc length: 3816 seconds
#
# Revision: 0
# Processed by: cddbd v1.5.2PL0 Copyright (c) Steve Scherf et al.
# Submitted via: CDex 1.70beta2
#
DISCID=7b0ee60b
DTITLE=Jazz on the Latin Side All Stars - Tambolero
DYEAR=2007
DGENRE=Jazz
TTITLE0=Granizo
TTITLE1=Amanecer Intro
TTITLE2=Amanecer
TTITLE3=Ah Leu Cha
TTITLE4=Yes or No
TTITLE5=Baila Mi Gente
TTITLE6=Buscando al Curandero
TTITLE7=Danilo en la Flauta
TTITLE8=Mama Vieja
TTITLE9=Senor Olmos
TTITLE10=El Eco del Tambo
EXTD=YEAR: 2007
EXTT0=
EXTT1=
EXTT2=
EXTT3=
EXTT4=
EXTT5=
EXTT6=
EXTT7=
EXTT8=
EXTT9=
EXTT10=
PLAYORDER=
